<?xml version="1.0" encoding="utf-8"?>
<!-- Generator: Adobe Illustrator 16.0.3, SVG Export Plug-In . SVG Version: 6.00 Build 0)  -->
<!DOCTYPE svg PUBLIC "-//W3C//DTD SVG 1.1//EN" "http://www.w3.org/Graphics/SVG/1.1/DTD/svg11.dtd">
<svg version="1.1"
	 id="esp8266-07" xmlns:inkscape="http://www.inkscape.org/namespaces/inkscape" xmlns:sodipodi="http://inkscape.sourceforge.net/DTD/sodipodi-0.dtd" xmlns:svg="http://www.w3.org/2000/svg" xmlns:dc="http://purl.org/dc/elements/1.1/" xmlns:cc="http://web.resource.org/cc/" xmlns:rdf="http://www.w3.org/1999/02/22-rdf-syntax-ns#" inkscape:version="0.41" sodipodi:docbase="/home/support/Source/ezix-workspace/packages/lshw/development/src/gui/artwork" sodipodi:docname="wifi.svg" sodipodi:version="0.32"
	 xmlns="http://www.w3.org/2000/svg" xmlns:xlink="http://www.w3.org/1999/xlink" x="0px" y="0px" width="285px" height="381px"
	 viewBox="122 76 285 381" enable-background="new 122 76 285 381" xml:space="preserve">
<rect id="pcb" x="122" y="76.501" fill="#000096" stroke="#000000" stroke-miterlimit="10" width="284" height="379.999"/>
<sodipodi:namedview  id="base" inkscape:cy="279.59399" inkscape:cx="368.34144" inkscape:zoom="0.70000000" borderopacity="1.0" bordercolor="#666666" pagecolor="#ffffff" inkscape:pageopacity="0.0" inkscape:pageshadow="2" inkscape:window-width="959" inkscape:window-height="680" inkscape:window-x="0" inkscape:current-layer="layer1" inkscape:window-y="26" inkscape:document-units="px">
	</sodipodi:namedview>
<g id="wifi_x5F_module">
	<rect x="151.5" y="160.5" fill="#A5A5A5" width="225" height="282"/>
	<g id="wifilogo" inkscape:label="Layer 1" inkscape:groupmode="layer">
		<path id="rect1332" d="M363.859,277.437c0-16.947-13.646-30.593-30.593-30.593h-17.533c-16.947,0-30.593,13.646-30.593,30.593
			v112.441c0,16.946,13.646,30.593,30.593,30.593h17.533c16.946,0,30.593-13.646,30.593-30.593V277.437z M357.607,360.018v31.148
			c0,12.566-10.115,22.683-22.684,22.683h-21.58c-12.567,0-22.683-10.116-22.683-22.683v-31.148c0-0.668,0.041-1.326,0.096-1.979
			c-0.093,0.807-0.153,1.624-0.153,2.454v-23.174v-0.113v-11.441c2.131,6.564,12.468,11.27,24.38,11.555h-0.796
			c-0.044,0.004-0.085,0.013-0.129,0.016h20.864C347.492,337.334,357.607,347.45,357.607,360.018z M347.123,316.68v1.327
			c0,2.739-2.21,4.948-4.949,4.948h-0.225c-2.739,0-4.941-2.209-4.941-4.948v-1.327c0-2.739,2.202-4.949,4.941-4.949h0.225
			C344.913,311.73,347.123,313.94,347.123,316.68z M347.123,393.41c0-2.738-2.21-4.948-4.949-4.948h-0.225
			c-2.739,0-4.941,2.21-4.941,4.948v1.328c0,2.738,2.202,4.948,4.941,4.948h0.225c2.739,0,4.949-2.21,4.949-4.948V393.41z
			 M344.918,280.502v9.567l-21.154,4.047l21.154,3.122v10.855l-39.178-8.827v-9.938l22.256-4.224l-22.441-4.047v-9.93l39.178-9.012
			v10.847l-21.701,3.315L344.918,280.502z M344.732,350.579l-39.363-0.74v11.04h12.143v20.229h9.197v-20.229h8.826v22.071h9.197
			V350.579z M334.434,312.285v9.93H305.74v-9.93H334.434z M334.434,389.018H305.74v9.929h28.693V389.018z"/>
	</g>
	<text transform="matrix(0 1 -1 0 248.1289 245.8447)" font-family="'MyriadPro-Regular'" font-size="30.4408">ESP8266MOD</text>
</g>
<g id="ant_x5F_ext">
	<rect x="133.5" y="97.5" fill="#FFFFFF" stroke="#000000" stroke-miterlimit="10" width="26" height="24"/>
	<g>
		<circle fill="#FFFFFF" cx="146.5" cy="109.5" r="8"/>
		<path fill="#FFCE00" d="M146.5,119.5c-5.514,0-10-4.486-10-10s4.486-10,10-10s10,4.486,10,10S152.014,119.5,146.5,119.5z
			 M146.5,103.5c-3.309,0-6,2.691-6,6s2.691,6,6,6s6-2.691,6-6S149.809,103.5,146.5,103.5z"/>
	</g>
</g>
<g id="ant_x5F_balun">
	<rect x="198.5" y="89.5" fill="#FFFFFF" stroke="#000000" stroke-miterlimit="10" width="178" height="23"/>
	<rect x="196.167" y="87.167" fill="#848484" width="6.667" height="27.333"/>
	<rect x="373.167" y="87.833" fill="#848484" width="6.667" height="27.333"/>
</g>
<g id="res_x5F_1">
	
		<rect x="169.5" y="135.269" fill="#9B7865" stroke="#000000" stroke-width="0.1007" stroke-miterlimit="10" width="9.144" height="4.538"/>
	<rect x="177.709" y="134.94" fill="#848484" width="1.869" height="5.575"/>
	<rect x="168.565" y="134.75" fill="#848484" width="1.869" height="5.575"/>
</g>
<g id="led1">
	
		<rect x="211" y="137.633" fill="#FFFFFF" stroke="#000000" stroke-width="0.1707" stroke-miterlimit="10" width="15.5" height="7.692"/>
	<rect x="224.916" y="137.076" fill="#848484" width="3.167" height="9.45"/>
	<rect x="209.416" y="136.754" fill="#848484" width="3.167" height="9.45"/>
</g>
<g id="led_x5F_2">
	
		<rect x="334.5" y="137.472" fill="#FFFFFF" stroke="#000000" stroke-width="0.1707" stroke-miterlimit="10" width="15.5" height="7.692"/>
	<rect x="348.416" y="136.915" fill="#848484" width="3.168" height="9.45"/>
	<rect x="332.916" y="136.593" fill="#848484" width="3.168" height="9.45"/>
</g>
<g id="res_x5F_2">
	<rect x="275.461" y="145.624" stroke="#000000" stroke-width="0.0993" stroke-miterlimit="10" width="10.171" height="3.973"/>
	<rect x="284.592" y="145.335" fill="#848484" width="2.079" height="4.881"/>
	<rect x="274.421" y="145.169" fill="#848484" width="2.079" height="4.881"/>
</g>
<path id="connector15pin" fill="#FFBC27" d="M122,164v3.25c2.348,0,4.25,1.903,4.25,4.25s-1.902,4.25-4.25,4.25V179h25.5v-15H122z
	 M134.75,175.75c-2.348,0-4.25-1.903-4.25-4.25s1.902-4.25,4.25-4.25s4.25,1.903,4.25,4.25S137.098,175.75,134.75,175.75z"/>
<path id="connector14pin" fill="#FFBC27" d="M122,202v3.25c2.348,0,4.25,1.903,4.25,4.25s-1.902,4.25-4.25,4.25V217h25.5v-15H122z
	 M134.75,213.75c-2.348,0-4.25-1.903-4.25-4.25s1.902-4.25,4.25-4.25s4.25,1.903,4.25,4.25S137.098,213.75,134.75,213.75z"/>
<path id="connector13pin" fill="#FFBC27" d="M122,240v3.25c2.348,0,4.25,1.903,4.25,4.25s-1.902,4.25-4.25,4.25V255h25.5v-15H122z
	 M134.75,251.75c-2.348,0-4.25-1.903-4.25-4.25s1.902-4.25,4.25-4.25s4.25,1.903,4.25,4.25S137.098,251.75,134.75,251.75z"/>
<path id="connector12pin" fill="#FFBC27" d="M122,278v3.25c2.348,0,4.25,1.903,4.25,4.25s-1.902,4.25-4.25,4.25V293h25.5v-15H122z
	 M134.75,289.75c-2.348,0-4.25-1.903-4.25-4.25s1.902-4.25,4.25-4.25s4.25,1.903,4.25,4.25S137.098,289.75,134.75,289.75z"/>
<path id="connector11pin" fill="#FFBC27" d="M122,316v3.25c2.348,0,4.25,1.903,4.25,4.25c0,2.348-1.902,4.25-4.25,4.25V331h25.5v-15
	H122z M134.75,327.75c-2.348,0-4.25-1.902-4.25-4.25c0-2.347,1.902-4.25,4.25-4.25s4.25,1.903,4.25,4.25
	C139,325.848,137.098,327.75,134.75,327.75z"/>
<path id="connector10pin" fill="#FFBC27" d="M122,354v3.25c2.348,0,4.25,1.903,4.25,4.25s-1.902,4.25-4.25,4.25V369h25.5v-15H122z
	 M134.75,365.75c-2.348,0-4.25-1.903-4.25-4.25s1.902-4.25,4.25-4.25s4.25,1.903,4.25,4.25S137.098,365.75,134.75,365.75z"/>
<path id="connector9pin" fill="#FFBC27" d="M122,392v3.25c2.348,0,4.25,1.903,4.25,4.25s-1.902,4.25-4.25,4.25V407h25.5v-15H122z
	 M134.75,403.75c-2.348,0-4.25-1.903-4.25-4.25s1.902-4.25,4.25-4.25s4.25,1.903,4.25,4.25S137.098,403.75,134.75,403.75z"/>
<path id="connector8pin" fill="#FFBC27" d="M122,430v3.25c2.348,0,4.25,1.903,4.25,4.25c0,2.348-1.902,4.25-4.25,4.25V445h25.5v-15
	H122z M134.75,441.75c-2.348,0-4.25-1.902-4.25-4.25c0-2.347,1.902-4.25,4.25-4.25s4.25,1.903,4.25,4.25
	C139,439.848,137.098,441.75,134.75,441.75z"/>
<path id="connector7pin" fill="#FFBC27" d="M406.334,179v-3.25c-2.348,0-4.25-1.903-4.25-4.25s1.902-4.25,4.25-4.25V164h-25.5v15
	H406.334z M393.584,167.25c2.348,0,4.25,1.903,4.25,4.25s-1.902,4.25-4.25,4.25s-4.25-1.903-4.25-4.25
	S391.236,167.25,393.584,167.25z"/>
<path id="connector6pin" fill="#FFBC27" d="M406.334,217v-3.25c-2.348,0-4.25-1.903-4.25-4.25s1.902-4.25,4.25-4.25V202h-25.5v15
	H406.334z M393.584,205.25c2.348,0,4.25,1.903,4.25,4.25s-1.902,4.25-4.25,4.25s-4.25-1.903-4.25-4.25
	S391.236,205.25,393.584,205.25z"/>
<path id="connector5pin" fill="#FFBC27" d="M406.334,255v-3.25c-2.348,0-4.25-1.903-4.25-4.25s1.902-4.25,4.25-4.25V240h-25.5v15
	H406.334z M393.584,243.25c2.348,0,4.25,1.903,4.25,4.25s-1.902,4.25-4.25,4.25s-4.25-1.903-4.25-4.25
	S391.236,243.25,393.584,243.25z"/>
<path id="connector4pin_1_" fill="#FFBC27" d="M406.334,293v-3.25c-2.348,0-4.25-1.902-4.25-4.25s1.902-4.25,4.25-4.25V278h-25.5v15
	H406.334z M393.584,281.25c2.348,0,4.25,1.902,4.25,4.25s-1.902,4.25-4.25,4.25s-4.25-1.902-4.25-4.25
	S391.236,281.25,393.584,281.25z"/>
<path id="connector3pin" fill="#FFBC27" d="M406.334,331v-3.25c-2.348,0-4.25-1.903-4.25-4.25c0-2.348,1.902-4.25,4.25-4.25V316
	h-25.5v15H406.334z M393.584,319.25c2.348,0,4.25,1.902,4.25,4.25c0,2.347-1.902,4.25-4.25,4.25s-4.25-1.903-4.25-4.25
	C389.334,321.152,391.236,319.25,393.584,319.25z"/>
<path id="connector2pin" fill="#FFBC27" d="M406.334,369v-3.25c-2.348,0-4.25-1.903-4.25-4.25s1.902-4.25,4.25-4.25V354h-25.5v15
	H406.334z M393.584,357.25c2.348,0,4.25,1.903,4.25,4.25s-1.902,4.25-4.25,4.25s-4.25-1.903-4.25-4.25
	S391.236,357.25,393.584,357.25z"/>
<path id="connector1pin" fill="#FFBC27" d="M406.334,407v-3.25c-2.348,0-4.25-1.903-4.25-4.25s1.902-4.25,4.25-4.25V392h-25.5v15
	H406.334z M393.584,395.25c2.348,0,4.25,1.903,4.25,4.25s-1.902,4.25-4.25,4.25s-4.25-1.903-4.25-4.25
	S391.236,395.25,393.584,395.25z"/>
<path id="connector0pin" fill="#FFBC27" d="M406.334,445v-3.25c-2.348,0-4.25-1.903-4.25-4.25c0-2.348,1.902-4.25,4.25-4.25V430
	h-25.5v15H406.334z M393.584,433.25c2.348,0,4.25,1.902,4.25,4.25c0,2.347-1.902,4.25-4.25,4.25s-4.25-1.903-4.25-4.25
	C389.334,435.152,391.236,433.25,393.584,433.25z"/>
</svg>
