<?xml version="1.0" encoding="UTF-8" standalone="no"?>
<!-- Generator: Adobe Illustrator 16.0.0, SVG Export Plug-In . SVG Version: 6.00 Build 0)  -->

<svg
   xmlns:dc="http://purl.org/dc/elements/1.1/"
   xmlns:cc="http://creativecommons.org/ns#"
   xmlns:rdf="http://www.w3.org/1999/02/22-rdf-syntax-ns#"
   xmlns:svg="http://www.w3.org/2000/svg"
   xmlns="http://www.w3.org/2000/svg"
   xmlns:sodipodi="http://sodipodi.sourceforge.net/DTD/sodipodi-0.dtd"
   xmlns:inkscape="http://www.inkscape.org/namespaces/inkscape"
   version="1.1"
   id="_x30_"
   x="0px"
   y="0px"
   width="50.598"
   height="103.465"
   viewBox="0 0 50.598001 103.465"
   enable-background="new 0 0 103.465 50.598"
   xml:space="preserve"
   inkscape:version="0.48.4 r9943 custom"
   sodipodi:docname="teensy31.svg"><metadata
   id="metadata3183"><rdf:RDF><cc:Work
       rdf:about=""><dc:format>image/svg+xml</dc:format><dc:type
         rdf:resource="http://purl.org/dc/dcmitype/StillImage" /></cc:Work></rdf:RDF></metadata><defs
   id="defs3181" /><sodipodi:namedview
   pagecolor="#ffffff"
   bordercolor="#666666"
   borderopacity="1"
   objecttolerance="10"
   gridtolerance="10"
   guidetolerance="10"
   inkscape:pageopacity="0"
   inkscape:pageshadow="2"
   inkscape:window-width="1081"
   inkscape:window-height="705"
   id="namedview3179"
   showgrid="false"
   inkscape:snap-page="true"
   fit-margin-top="0"
   fit-margin-left="0"
   fit-margin-right="0"
   fit-margin-bottom="0"
   inkscape:zoom="3.0058475"
   inkscape:cx="25.298999"
   inkscape:cy="51.732498"
   inkscape:window-x="112"
   inkscape:window-y="79"
   inkscape:window-maximized="0"
   inkscape:current-layer="_x30_" />
<g
   id="breadboard"
   transform="matrix(0,1,-1,0,50.598,-6.8182671e-7)">
	<path
   id="_x30_.1"
   d="m 2.835,0 v 50.598 h 100.63 V 0 H 2.835 z m 39.514,1.906 c 0.998,0 1.812,0.813 1.812,1.813 0,1 -0.814,1.813 -1.812,1.813 -1,0 -1.812,-0.813 -1.812,-1.813 10e-4,-0.999 0.812,-1.813 1.812,-1.813 z m 0,8.227 c 0.998,0 1.812,0.813 1.812,1.813 0,1 -0.813,1.813 -1.812,1.813 -1,0 -1.812,-0.813 -1.812,-1.813 10e-4,-0.998 0.812,-1.813 1.812,-1.813 z M 6.348,48.682 c -1,0 -1.812,-0.811 -1.812,-1.811 0,-0.998 0.812,-1.813 1.812,-1.813 0.998,0 1.812,0.813 1.812,1.813 0,1 -0.814,1.811 -1.812,1.811 z m 0,-43.151 c -1,0 -1.812,-0.813 -1.812,-1.813 0,-0.998 0.812,-1.813 1.812,-1.813 0.998,0 1.812,0.813 1.812,1.813 0,1 -0.814,1.813 -1.812,1.813 z m 7.201,43.151 c -1,0 -1.812,-0.811 -1.812,-1.811 0,-0.998 0.812,-1.813 1.812,-1.813 0.998,0 1.812,0.813 1.812,1.813 0,1 -0.814,1.811 -1.812,1.811 z m 0,-34.924 c -1,0 -1.812,-0.813 -1.812,-1.813 0,-0.995 0.812,-1.813 1.812,-1.813 0.998,0 1.812,0.813 1.812,1.813 0,1 -0.814,1.813 -1.812,1.813 z m 0,-8.227 c -1,0 -1.812,-0.813 -1.812,-1.813 0,-0.998 0.812,-1.813 1.812,-1.813 0.998,0 1.812,0.813 1.812,1.813 0,1 -0.814,1.813 -1.812,1.813 z m 7.2,43.151 c -1,0 -1.812,-0.811 -1.812,-1.811 0,-0.998 0.812,-1.813 1.812,-1.813 0.998,0 1.812,0.813 1.812,1.813 0,1 -0.814,1.811 -1.812,1.811 z m 0,-43.151 c -1,0 -1.812,-0.813 -1.812,-1.813 0,-0.998 0.812,-1.813 1.812,-1.813 0.998,0 1.812,0.813 1.812,1.813 0,1 -0.814,1.813 -1.812,1.813 z m 7.2,43.151 c -1,0 -1.812,-0.811 -1.812,-1.811 0,-0.998 0.812,-1.813 1.812,-1.813 0.998,0 1.812,0.813 1.812,1.813 0,1 -0.814,1.811 -1.812,1.811 z m 0,-34.924 c -1,0 -1.812,-0.813 -1.812,-1.813 0,-0.995 0.812,-1.813 1.812,-1.813 0.998,0 1.812,0.813 1.812,1.813 0,1 -0.814,1.813 -1.812,1.813 z m 0,-8.227 c -1,0 -1.812,-0.813 -1.812,-1.813 0,-0.998 0.812,-1.813 1.812,-1.813 0.998,0 1.812,0.813 1.812,1.813 0,1 -0.814,1.813 -1.812,1.813 z m 7.2,43.151 c -1,0 -1.812,-0.811 -1.812,-1.811 0,-0.998 0.812,-1.813 1.812,-1.813 0.998,0 1.812,0.813 1.812,1.813 0,1 -0.814,1.811 -1.812,1.811 z m 0,-34.924 c -1,0 -1.812,-0.813 -1.812,-1.813 0,-0.995 0.812,-1.813 1.812,-1.813 0.998,0 1.812,0.813 1.812,1.813 0,1 -0.814,1.813 -1.812,1.813 z m 0,-8.227 c -1,0 -1.812,-0.813 -1.812,-1.813 0,-0.998 0.812,-1.813 1.812,-1.813 0.998,0 1.812,0.813 1.812,1.813 0,1 -0.814,1.813 -1.812,1.813 z m 3.938,17.192 c 0,-0.533 0.433,-0.968 0.967,-0.968 0.533,0 0.968,0.434 0.968,0.968 0,0.534 -0.435,0.968 -0.968,0.968 -0.534,-10e-4 -0.967,-0.434 -0.967,-0.968 z m 3.262,25.959 c -1,0 -1.812,-0.811 -1.812,-1.811 0,-0.998 0.812,-1.813 1.812,-1.813 0.998,0 1.812,0.813 1.812,1.813 0,1 -0.814,1.811 -1.812,1.811 z M 43.901,23.69 c -0.534,0 -0.968,-0.434 -0.968,-0.968 0,-0.533 0.434,-0.968 0.968,-0.968 0.533,0 0.967,0.434 0.967,0.968 0,0.534 -0.435,0.968 -0.967,0.968 z m 5.649,24.992 c -1,0 -1.812,-0.811 -1.812,-1.811 0,-0.998 0.812,-1.813 1.812,-1.813 0.998,0 1.812,0.813 1.812,1.813 0,1 -0.814,1.811 -1.812,1.811 z m 0,-43.151 c -1,0 -1.812,-0.813 -1.812,-1.813 0,-0.998 0.812,-1.813 1.812,-1.813 0.998,0 1.812,0.813 1.812,1.813 0,1 -0.814,1.813 -1.812,1.813 z m 7.2,43.151 c -1,0 -1.813,-0.811 -1.813,-1.811 0,-0.998 0.813,-1.813 1.813,-1.813 0.998,0 1.813,0.813 1.813,1.813 0,1 -0.815,1.811 -1.813,1.811 z m 0,-43.151 c -1,0 -1.813,-0.813 -1.813,-1.813 0,-0.998 0.813,-1.813 1.813,-1.813 0.998,0 1.813,0.813 1.813,1.813 0,1 -0.815,1.813 -1.813,1.813 z m 7.2,43.151 c -1,0 -1.812,-0.811 -1.812,-1.811 0,-0.998 0.812,-1.813 1.812,-1.813 0.997,0 1.812,0.813 1.812,1.813 0,1 -0.815,1.811 -1.812,1.811 z m 0,-43.151 c -1,0 -1.812,-0.813 -1.812,-1.813 0,-0.998 0.812,-1.813 1.812,-1.813 0.997,0 1.812,0.813 1.812,1.813 0,1 -0.815,1.813 -1.812,1.813 z m 7.2,43.151 c -1,0 -1.813,-0.811 -1.813,-1.811 0,-0.998 0.813,-1.813 1.813,-1.813 0.998,0 1.812,0.813 1.812,1.813 0,1 -0.814,1.811 -1.812,1.811 z m 0,-43.151 c -1,0 -1.813,-0.813 -1.813,-1.813 0,-0.998 0.813,-1.813 1.813,-1.813 0.998,0 1.812,0.813 1.812,1.813 0,1 -0.814,1.813 -1.812,1.813 z m 7.202,43.151 c -1,0 -1.813,-0.811 -1.813,-1.811 0,-0.998 0.813,-1.813 1.813,-1.813 0.998,0 1.813,0.813 1.813,1.813 0,1 -0.815,1.811 -1.813,1.811 z m 0,-43.151 c -1,0 -1.813,-0.813 -1.813,-1.813 0,-0.998 0.813,-1.813 1.813,-1.813 0.998,0 1.813,0.813 1.813,1.813 0,1 -0.815,1.813 -1.813,1.813 z m 7.199,43.151 c -1,0 -1.811,-0.811 -1.811,-1.811 0,-0.998 0.811,-1.813 1.811,-1.813 0.998,0 1.813,0.813 1.813,1.813 0,1 -0.815,1.811 -1.813,1.811 z m 0,-43.151 c -1,0 -1.811,-0.813 -1.811,-1.813 0,-0.998 0.811,-1.813 1.811,-1.813 0.998,0 1.813,0.813 1.813,1.813 0,1 -0.815,1.813 -1.813,1.813 z m 7.201,43.151 c -1,0 -1.813,-0.811 -1.813,-1.811 0,-0.998 0.813,-1.813 1.813,-1.813 0.998,0 1.811,0.813 1.811,1.813 0,1 -0.813,1.811 -1.811,1.811 z m 0,-43.151 c -1,0 -1.813,-0.813 -1.813,-1.813 0,-0.998 0.813,-1.813 1.813,-1.813 0.998,0 1.811,0.813 1.811,1.813 0,1 -0.813,1.813 -1.811,1.813 z m 7.199,43.151 c -1,0 -1.811,-0.811 -1.811,-1.811 0,-0.998 0.811,-1.813 1.811,-1.813 0.998,0 1.813,0.813 1.813,1.813 0,1 -0.815,1.811 -1.813,1.811 z m 0,-7.151 c -1,0 -1.811,-0.813 -1.811,-1.813 0,-0.998 0.811,-1.813 1.811,-1.813 0.998,0 1.813,0.813 1.813,1.813 0,1 -0.815,1.813 -1.813,1.813 z m 0,-7.2 c -1,0 -1.811,-0.813 -1.811,-1.813 0,-0.998 0.811,-1.813 1.811,-1.813 0.998,0 1.813,0.813 1.813,1.813 0,1 -0.815,1.813 -1.813,1.813 z m 0,-7.202 c -1,0 -1.811,-0.813 -1.811,-1.813 0,-0.998 0.811,-1.813 1.811,-1.813 0.998,0 1.813,0.813 1.813,1.813 0,1 -0.815,1.813 -1.813,1.813 z m 0,-7.199 c -1,0 -1.811,-0.811 -1.811,-1.811 0,-0.998 0.811,-1.813 1.811,-1.813 0.998,0 1.813,0.813 1.813,1.813 0,1 -0.815,1.811 -1.813,1.811 z m 0,-7.201 c -1,0 -1.811,-0.811 -1.811,-1.811 0,-0.998 0.811,-1.813 1.811,-1.813 0.998,0 1.813,0.813 1.813,1.813 0,1 -0.815,1.811 -1.813,1.811 z m 0,-7.198 c -1,0 -1.811,-0.813 -1.811,-1.813 0,-0.998 0.811,-1.813 1.811,-1.813 0.998,0 1.813,0.813 1.813,1.813 0,1 -0.815,1.813 -1.813,1.813 z"
   inkscape:connector-curvature="0"
   style="fill:#1e7a33" />
	<g
   id="_x30_.2">
		<g
   id="_x30_.2.0">
			<g
   id="_x30_.2.0.0">
				<path
   id="_x30_.2.0.0.0"
   d="m 6.348,1.167 c -1.405,0 -2.554,1.146 -2.554,2.555 0,1.406 1.146,2.555 2.554,2.555 1.408,0 2.554,-1.146 2.554,-2.555 C 8.901,2.313 7.757,1.167 6.348,1.167 z m 0,4.364 c -1,0 -1.812,-0.813 -1.812,-1.813 0,-0.998 0.812,-1.813 1.812,-1.813 0.998,0 1.812,0.813 1.812,1.813 0,1 -0.814,1.813 -1.812,1.813 z"
   inkscape:connector-curvature="0"
   style="fill:#9a916c" />
			</g>
			<g
   id="_x30_.2.0.1">
				<path
   id="_x30_.2.0.1.0"
   d="m 13.549,1.167 c -1.405,0 -2.554,1.146 -2.554,2.555 0,1.406 1.146,2.555 2.554,2.555 1.408,0 2.554,-1.146 2.554,-2.555 C 16.101,2.313 14.957,1.167 13.549,1.167 z m 0,4.364 c -1,0 -1.812,-0.813 -1.812,-1.813 0,-0.998 0.812,-1.813 1.812,-1.813 0.998,0 1.812,0.813 1.812,1.813 0,1 -0.814,1.813 -1.812,1.813 z"
   inkscape:connector-curvature="0"
   style="fill:#9a916c" />
			</g>
			<g
   id="_x30_.2.0.2">
				<path
   id="_x30_.2.0.2.0"
   d="m 20.749,1.167 c -1.405,0 -2.554,1.146 -2.554,2.555 0,1.406 1.146,2.555 2.554,2.555 1.408,0 2.554,-1.146 2.554,-2.555 C 23.302,2.313 22.157,1.167 20.749,1.167 z m 0,4.364 c -1,0 -1.812,-0.813 -1.812,-1.813 0,-0.998 0.812,-1.813 1.812,-1.813 0.998,0 1.812,0.813 1.812,1.813 0,1 -0.814,1.813 -1.812,1.813 z"
   inkscape:connector-curvature="0"
   style="fill:#9a916c" />
			</g>
			<g
   id="_x30_.2.0.3">
				<path
   id="_x30_.2.0.3.0"
   d="m 27.949,1.167 c -1.405,0 -2.554,1.146 -2.554,2.555 0,1.406 1.146,2.555 2.554,2.555 1.408,0 2.554,-1.146 2.554,-2.555 C 30.502,2.313 29.357,1.167 27.949,1.167 z m 0,4.364 c -1,0 -1.812,-0.813 -1.812,-1.813 0,-0.998 0.812,-1.813 1.812,-1.813 0.998,0 1.812,0.813 1.812,1.813 0,1 -0.814,1.813 -1.812,1.813 z"
   inkscape:connector-curvature="0"
   style="fill:#9a916c" />
			</g>
			<g
   id="_x30_.2.0.4">
				<path
   id="_x30_.2.0.4.0"
   d="m 35.149,1.167 c -1.405,0 -2.554,1.146 -2.554,2.555 0,1.406 1.146,2.555 2.554,2.555 1.408,0 2.554,-1.146 2.554,-2.555 C 37.702,2.313 36.557,1.167 35.149,1.167 z m 0,4.364 c -1,0 -1.812,-0.813 -1.812,-1.813 0,-0.998 0.812,-1.813 1.812,-1.813 0.998,0 1.812,0.813 1.812,1.813 0,1 -0.814,1.813 -1.812,1.813 z"
   inkscape:connector-curvature="0"
   style="fill:#9a916c" />
			</g>
			<g
   id="_x30_.2.0.5">
				<path
   id="_x30_.2.0.5.0"
   d="m 42.349,1.167 c -1.405,0 -2.554,1.146 -2.554,2.555 0,1.406 1.146,2.555 2.554,2.555 1.408,0 2.554,-1.146 2.554,-2.555 C 44.902,2.313 43.758,1.167 42.349,1.167 z m 0,4.364 c -1,0 -1.812,-0.813 -1.812,-1.813 0,-0.998 0.812,-1.813 1.812,-1.813 0.998,0 1.812,0.813 1.812,1.813 0,1 -0.814,1.813 -1.812,1.813 z"
   inkscape:connector-curvature="0"
   style="fill:#9a916c" />
			</g>
			<g
   id="_x30_.2.0.6">
				<path
   id="_x30_.2.0.6.0"
   d="m 49.55,1.167 c -1.405,0 -2.554,1.146 -2.554,2.555 0,1.406 1.146,2.555 2.554,2.555 1.408,0 2.554,-1.146 2.554,-2.555 C 52.102,2.313 50.958,1.167 49.55,1.167 z m 0,4.364 c -1,0 -1.812,-0.813 -1.812,-1.813 0,-0.998 0.812,-1.813 1.812,-1.813 0.998,0 1.812,0.813 1.812,1.813 0,1 -0.814,1.813 -1.812,1.813 z"
   inkscape:connector-curvature="0"
   style="fill:#9a916c" />
			</g>
			<g
   id="_x30_.2.0.7">
				<path
   id="_x30_.2.0.7.0"
   d="m 56.75,1.167 c -1.404,0 -2.555,1.146 -2.555,2.555 0,1.406 1.146,2.555 2.555,2.555 1.409,0 2.555,-1.146 2.555,-2.555 C 59.303,2.313 58.158,1.167 56.75,1.167 z m 0,4.364 c -1,0 -1.813,-0.813 -1.813,-1.813 0,-0.998 0.813,-1.813 1.813,-1.813 0.998,0 1.813,0.813 1.813,1.813 0,1 -0.815,1.813 -1.813,1.813 z"
   inkscape:connector-curvature="0"
   style="fill:#9a916c" />
			</g>
			<g
   id="_x30_.2.0.8">
				<path
   id="_x30_.2.0.8.0"
   d="m 63.95,1.167 c -1.405,0 -2.554,1.146 -2.554,2.555 0,1.406 1.146,2.555 2.554,2.555 1.407,0 2.554,-1.146 2.554,-2.555 C 66.503,2.313 65.357,1.167 63.95,1.167 z m 0,4.364 c -1,0 -1.812,-0.813 -1.812,-1.813 0,-0.998 0.812,-1.813 1.812,-1.813 0.997,0 1.812,0.813 1.812,1.813 0,1 -0.815,1.813 -1.812,1.813 z"
   inkscape:connector-curvature="0"
   style="fill:#9a916c" />
			</g>
			<g
   id="_x30_.2.0.9">
				<path
   id="_x30_.2.0.9.0"
   d="m 71.15,1.167 c -1.405,0 -2.555,1.146 -2.555,2.555 0,1.406 1.146,2.555 2.555,2.555 1.408,0 2.554,-1.146 2.554,-2.555 C 73.703,2.313 72.559,1.167 71.15,1.167 z m 0,4.364 c -1,0 -1.813,-0.813 -1.813,-1.813 0,-0.998 0.813,-1.813 1.813,-1.813 0.998,0 1.812,0.813 1.812,1.813 0,1 -0.814,1.813 -1.812,1.813 z"
   inkscape:connector-curvature="0"
   style="fill:#9a916c" />
			</g>
			<g
   id="_x30_.2.0.10">
				<path
   id="_x30_.2.0.10.0"
   d="m 78.352,1.167 c -1.406,0 -2.555,1.146 -2.555,2.555 0,1.406 1.146,2.555 2.555,2.555 1.41,0 2.553,-1.146 2.553,-2.555 0,-1.409 -1.145,-2.555 -2.553,-2.555 z m 0,4.364 c -1,0 -1.813,-0.813 -1.813,-1.813 0,-0.998 0.813,-1.813 1.813,-1.813 0.998,0 1.813,0.813 1.813,1.813 0,1 -0.815,1.813 -1.813,1.813 z"
   inkscape:connector-curvature="0"
   style="fill:#9a916c" />
			</g>
			<g
   id="_x30_.2.0.11">
				<path
   id="_x30_.2.0.11.0"
   d="m 85.551,1.167 c -1.404,0 -2.553,1.146 -2.553,2.555 0,1.406 1.146,2.555 2.553,2.555 1.408,0 2.555,-1.146 2.555,-2.555 C 88.104,2.313 86.959,1.167 85.551,1.167 z m 0,4.364 c -1,0 -1.811,-0.813 -1.811,-1.813 0,-0.998 0.811,-1.813 1.811,-1.813 0.998,0 1.813,0.813 1.813,1.813 0,1 -0.815,1.813 -1.813,1.813 z"
   inkscape:connector-curvature="0"
   style="fill:#9a916c" />
			</g>
			<g
   id="_x30_.2.0.12">
				<path
   id="_x30_.2.0.12.0"
   d="m 92.752,1.167 c -1.406,0 -2.555,1.146 -2.555,2.555 0,1.406 1.146,2.555 2.555,2.555 1.409,0 2.553,-1.146 2.553,-2.555 0,-1.409 -1.145,-2.555 -2.553,-2.555 z m 0,4.364 c -1,0 -1.813,-0.813 -1.813,-1.813 0,-0.998 0.813,-1.813 1.813,-1.813 0.998,0 1.811,0.813 1.811,1.813 0,1 -0.813,1.813 -1.811,1.813 z"
   inkscape:connector-curvature="0"
   style="fill:#9a916c" />
			</g>
			<g
   id="_x30_.2.0.13">
				<path
   id="_x30_.2.0.13.0"
   d="m 99.951,1.167 c -1.404,0 -2.553,1.146 -2.553,2.555 0,1.406 1.146,2.555 2.553,2.555 1.408,0 2.555,-1.146 2.555,-2.555 -0.002,-1.409 -1.147,-2.555 -2.555,-2.555 z m 0,4.364 c -1,0 -1.811,-0.813 -1.811,-1.813 0,-0.998 0.811,-1.813 1.811,-1.813 0.998,0 1.813,0.813 1.813,1.813 0,1 -0.815,1.813 -1.813,1.813 z"
   inkscape:connector-curvature="0"
   style="fill:#9a916c" />
			</g>
			<g
   id="_x30_.2.0.14">
				<path
   id="_x30_.2.0.14.0"
   d="m 13.549,9.395 c -1.405,0 -2.554,1.146 -2.554,2.558 0,1.403 1.146,2.555 2.554,2.555 1.408,0 2.554,-1.146 2.554,-2.555 -0.002,-1.412 -1.146,-2.558 -2.554,-2.558 z m 0,4.363 c -1,0 -1.812,-0.813 -1.812,-1.813 0,-0.995 0.812,-1.813 1.812,-1.813 0.998,0 1.812,0.813 1.812,1.813 0,1 -0.814,1.813 -1.812,1.813 z"
   inkscape:connector-curvature="0"
   style="fill:#9a916c" />
			</g>
			<g
   id="_x30_.2.0.15">
				<path
   id="_x30_.2.0.15.0"
   d="m 27.949,9.395 c -1.405,0 -2.554,1.146 -2.554,2.558 0,1.403 1.146,2.555 2.554,2.555 1.408,0 2.554,-1.146 2.554,-2.555 -0.001,-1.412 -1.146,-2.558 -2.554,-2.558 z m 0,4.363 c -1,0 -1.812,-0.813 -1.812,-1.813 0,-0.995 0.812,-1.813 1.812,-1.813 0.998,0 1.812,0.813 1.812,1.813 0,1 -0.814,1.813 -1.812,1.813 z"
   inkscape:connector-curvature="0"
   style="fill:#9a916c" />
			</g>
			<g
   id="_x30_.2.0.16">
				<path
   id="_x30_.2.0.16.0"
   d="m 35.149,9.395 c -1.405,0 -2.554,1.146 -2.554,2.558 0,1.403 1.146,2.555 2.554,2.555 1.408,0 2.554,-1.146 2.554,-2.555 -0.001,-1.412 -1.146,-2.558 -2.554,-2.558 z m 0,4.363 c -1,0 -1.812,-0.813 -1.812,-1.813 0,-0.995 0.812,-1.813 1.812,-1.813 0.998,0 1.812,0.813 1.812,1.813 0,1 -0.814,1.813 -1.812,1.813 z"
   inkscape:connector-curvature="0"
   style="fill:#9a916c" />
			</g>
			<g
   id="_x30_.2.0.17">
				<path
   id="_x30_.2.0.17.0"
   d="m 42.349,9.395 c -1.405,0 -2.554,1.146 -2.554,2.558 0,1.403 1.146,2.555 2.554,2.555 1.408,0 2.554,-1.146 2.554,-2.555 -10e-4,-1.412 -1.145,-2.558 -2.554,-2.558 z m 0,4.363 c -1,0 -1.812,-0.813 -1.812,-1.813 0,-0.995 0.812,-1.813 1.812,-1.813 0.998,0 1.812,0.813 1.812,1.813 0,1 -0.814,1.813 -1.812,1.813 z"
   inkscape:connector-curvature="0"
   style="fill:#9a916c" />
			</g>
			<g
   id="_x30_.2.0.18">
				<path
   id="_x30_.2.0.18.0"
   d="m 40.054,21.36 c -0.75,0 -1.364,0.612 -1.364,1.364 0,0.751 0.612,1.364 1.364,1.364 0.752,0 1.364,-0.612 1.364,-1.364 0,-0.751 -0.611,-1.364 -1.364,-1.364 z m 0,2.33 c -0.534,0 -0.967,-0.434 -0.967,-0.968 0,-0.533 0.433,-0.968 0.967,-0.968 0.533,0 0.968,0.434 0.968,0.968 0,0.534 -0.434,0.968 -0.968,0.968 z"
   inkscape:connector-curvature="0"
   style="fill:#9a916c" />
			</g>
			<g
   id="_x30_.2.0.19">
				<path
   id="_x30_.2.0.19.0"
   d="m 43.901,21.36 c -0.751,0 -1.364,0.612 -1.364,1.364 0,0.751 0.612,1.364 1.364,1.364 0.752,0 1.364,-0.612 1.364,-1.364 -10e-4,-0.751 -0.612,-1.364 -1.364,-1.364 z m 0,2.33 c -0.534,0 -0.968,-0.434 -0.968,-0.968 0,-0.533 0.434,-0.968 0.968,-0.968 0.533,0 0.967,0.434 0.967,0.968 0,0.534 -0.435,0.968 -0.967,0.968 z"
   inkscape:connector-curvature="0"
   style="fill:#9a916c" />
			</g>
		</g>
		<g
   id="_x30_.2.1">
			<g
   id="_x30_.2.1.0">
				<path
   id="_x30_.2.1.0.0"
   d="m 99.951,37.168 c -1.404,0 -2.553,1.146 -2.553,2.555 0,1.406 1.146,2.555 2.553,2.555 1.408,0 2.555,-1.146 2.555,-2.555 -0.002,-1.41 -1.147,-2.555 -2.555,-2.555 z m 0,4.363 c -1,0 -1.811,-0.813 -1.811,-1.813 0,-0.998 0.811,-1.813 1.811,-1.813 0.998,0 1.813,0.813 1.813,1.813 0,1 -0.815,1.813 -1.813,1.813 z"
   inkscape:connector-curvature="0"
   style="fill:#9a916c" />
			</g>
			<g
   id="_x30_.2.1.1">
				<path
   id="_x30_.2.1.1.0"
   d="m 99.951,29.969 c -1.404,0 -2.553,1.146 -2.553,2.555 0,1.406 1.146,2.558 2.553,2.558 1.408,0 2.555,-1.146 2.555,-2.558 -0.002,-1.409 -1.147,-2.555 -2.555,-2.555 z m 0,4.362 c -1,0 -1.811,-0.813 -1.811,-1.813 0,-0.998 0.811,-1.813 1.811,-1.813 0.998,0 1.813,0.813 1.813,1.813 0,1 -0.815,1.813 -1.813,1.813 z"
   inkscape:connector-curvature="0"
   style="fill:#9a916c" />
			</g>
			<g
   id="_x30_.2.1.2">
				<path
   id="_x30_.2.1.2.0"
   d="m 99.951,22.769 c -1.404,0 -2.553,1.146 -2.553,2.558 0,1.403 1.146,2.554 2.553,2.554 1.408,0 2.555,-1.146 2.555,-2.554 -0.002,-1.414 -1.147,-2.558 -2.555,-2.558 z m 0,4.36 c -1,0 -1.811,-0.813 -1.811,-1.813 0,-0.998 0.811,-1.813 1.811,-1.813 0.998,0 1.813,0.813 1.813,1.813 0,1 -0.815,1.813 -1.813,1.813 z"
   inkscape:connector-curvature="0"
   style="fill:#9a916c" />
			</g>
			<g
   id="_x30_.2.1.3">
				<path
   id="_x30_.2.1.3.0"
   d="m 99.951,15.568 c -1.404,0 -2.553,1.146 -2.553,2.558 0,1.403 1.146,2.555 2.553,2.555 1.408,0 2.555,-1.146 2.555,-2.555 -0.002,-1.413 -1.147,-2.558 -2.555,-2.558 z m 0,4.362 c -1,0 -1.811,-0.811 -1.811,-1.811 0,-0.998 0.811,-1.813 1.811,-1.813 0.998,0 1.813,0.813 1.813,1.813 0,1 -0.815,1.811 -1.813,1.811 z"
   inkscape:connector-curvature="0"
   style="fill:#9a916c" />
			</g>
			<g
   id="_x30_.2.1.4">
				<path
   id="_x30_.2.1.4.0"
   d="m 99.951,8.368 c -1.404,0 -2.553,1.146 -2.553,2.555 0,1.406 1.146,2.555 2.553,2.555 1.408,0 2.555,-1.146 2.555,-2.555 -0.002,-1.41 -1.147,-2.555 -2.555,-2.555 z m 0,4.361 c -1,0 -1.811,-0.811 -1.811,-1.811 0,-0.998 0.811,-1.813 1.811,-1.813 0.998,0 1.813,0.813 1.813,1.813 0,1 -0.815,1.811 -1.813,1.811 z"
   inkscape:connector-curvature="0"
   style="fill:#9a916c" />
			</g>
		</g>
		<g
   id="_x30_.2.2">
			<g
   id="_x30_.2.2.0">
				<path
   id="_x30_.2.2.0.0"
   d="m 6.348,44.321 c -1.405,0 -2.554,1.146 -2.554,2.558 0,1.406 1.146,2.555 2.554,2.555 1.408,0 2.554,-1.146 2.554,-2.555 C 8.901,45.465 7.757,44.321 6.348,44.321 z m 0,4.361 c -1,0 -1.812,-0.811 -1.812,-1.811 0,-0.998 0.812,-1.813 1.812,-1.813 0.998,0 1.812,0.813 1.812,1.813 0,1 -0.814,1.811 -1.812,1.811 z"
   inkscape:connector-curvature="0"
   style="fill:#9a916c" />
			</g>
			<g
   id="_x30_.2.2.1">
				<path
   id="_x30_.2.2.1.0"
   d="m 13.549,44.321 c -1.405,0 -2.554,1.146 -2.554,2.558 0,1.406 1.146,2.555 2.554,2.555 1.408,0 2.554,-1.146 2.554,-2.555 -0.002,-1.414 -1.146,-2.558 -2.554,-2.558 z m 0,4.361 c -1,0 -1.812,-0.811 -1.812,-1.811 0,-0.998 0.812,-1.813 1.812,-1.813 0.998,0 1.812,0.813 1.812,1.813 0,1 -0.814,1.811 -1.812,1.811 z"
   inkscape:connector-curvature="0"
   style="fill:#9a916c" />
			</g>
			<g
   id="_x30_.2.2.2">
				<path
   id="_x30_.2.2.2.0"
   d="m 20.749,44.321 c -1.405,0 -2.554,1.146 -2.554,2.558 0,1.406 1.146,2.555 2.554,2.555 1.408,0 2.554,-1.146 2.554,-2.555 -0.001,-1.414 -1.146,-2.558 -2.554,-2.558 z m 0,4.361 c -1,0 -1.812,-0.811 -1.812,-1.811 0,-0.998 0.812,-1.813 1.812,-1.813 0.998,0 1.812,0.813 1.812,1.813 0,1 -0.814,1.811 -1.812,1.811 z"
   inkscape:connector-curvature="0"
   style="fill:#9a916c" />
			</g>
			<g
   id="_x30_.2.2.3">
				<path
   id="_x30_.2.2.3.0"
   d="m 27.949,44.321 c -1.405,0 -2.554,1.146 -2.554,2.558 0,1.406 1.146,2.555 2.554,2.555 1.408,0 2.554,-1.146 2.554,-2.555 -0.001,-1.414 -1.146,-2.558 -2.554,-2.558 z m 0,4.361 c -1,0 -1.812,-0.811 -1.812,-1.811 0,-0.998 0.812,-1.813 1.812,-1.813 0.998,0 1.812,0.813 1.812,1.813 0,1 -0.814,1.811 -1.812,1.811 z"
   inkscape:connector-curvature="0"
   style="fill:#9a916c" />
			</g>
			<g
   id="_x30_.2.2.4">
				<path
   id="_x30_.2.2.4.0"
   d="m 35.149,44.321 c -1.405,0 -2.554,1.146 -2.554,2.558 0,1.406 1.146,2.555 2.554,2.555 1.408,0 2.554,-1.146 2.554,-2.555 -0.001,-1.414 -1.146,-2.558 -2.554,-2.558 z m 0,4.361 c -1,0 -1.812,-0.811 -1.812,-1.811 0,-0.998 0.812,-1.813 1.812,-1.813 0.998,0 1.812,0.813 1.812,1.813 0,1 -0.814,1.811 -1.812,1.811 z"
   inkscape:connector-curvature="0"
   style="fill:#9a916c" />
			</g>
			<g
   id="_x30_.2.2.5">
				<path
   id="_x30_.2.2.5.0"
   d="m 42.349,44.321 c -1.405,0 -2.554,1.146 -2.554,2.558 0,1.406 1.146,2.555 2.554,2.555 1.408,0 2.554,-1.146 2.554,-2.555 -10e-4,-1.414 -1.145,-2.558 -2.554,-2.558 z m 0,4.361 c -1,0 -1.812,-0.811 -1.812,-1.811 0,-0.998 0.812,-1.813 1.812,-1.813 0.998,0 1.812,0.813 1.812,1.813 0,1 -0.814,1.811 -1.812,1.811 z"
   inkscape:connector-curvature="0"
   style="fill:#9a916c" />
			</g>
			<g
   id="_x30_.2.2.6">
				<path
   id="_x30_.2.2.6.0"
   d="m 49.55,44.321 c -1.405,0 -2.554,1.146 -2.554,2.558 0,1.406 1.146,2.555 2.554,2.555 1.408,0 2.554,-1.146 2.554,-2.555 -0.002,-1.414 -1.146,-2.558 -2.554,-2.558 z m 0,4.361 c -1,0 -1.812,-0.811 -1.812,-1.811 0,-0.998 0.812,-1.813 1.812,-1.813 0.998,0 1.812,0.813 1.812,1.813 0,1 -0.814,1.811 -1.812,1.811 z"
   inkscape:connector-curvature="0"
   style="fill:#9a916c" />
			</g>
			<g
   id="_x30_.2.2.7">
				<path
   id="_x30_.2.2.7.0"
   d="m 56.75,44.321 c -1.404,0 -2.555,1.146 -2.555,2.558 0,1.406 1.146,2.555 2.555,2.555 1.409,0 2.555,-1.146 2.555,-2.555 -0.002,-1.414 -1.147,-2.558 -2.555,-2.558 z m 0,4.361 c -1,0 -1.813,-0.811 -1.813,-1.811 0,-0.998 0.813,-1.813 1.813,-1.813 0.998,0 1.813,0.813 1.813,1.813 0,1 -0.815,1.811 -1.813,1.811 z"
   inkscape:connector-curvature="0"
   style="fill:#9a916c" />
			</g>
			<g
   id="_x30_.2.2.8">
				<path
   id="_x30_.2.2.8.0"
   d="m 63.95,44.321 c -1.405,0 -2.554,1.146 -2.554,2.558 0,1.406 1.146,2.555 2.554,2.555 1.407,0 2.554,-1.146 2.554,-2.555 -0.001,-1.414 -1.147,-2.558 -2.554,-2.558 z m 0,4.361 c -1,0 -1.812,-0.811 -1.812,-1.811 0,-0.998 0.812,-1.813 1.812,-1.813 0.997,0 1.812,0.813 1.812,1.813 0,1 -0.815,1.811 -1.812,1.811 z"
   inkscape:connector-curvature="0"
   style="fill:#9a916c" />
			</g>
			<g
   id="_x30_.2.2.9">
				<path
   id="_x30_.2.2.9.0"
   d="m 71.15,44.321 c -1.405,0 -2.555,1.146 -2.555,2.558 0,1.406 1.146,2.555 2.555,2.555 1.408,0 2.554,-1.146 2.554,-2.555 -10e-4,-1.414 -1.145,-2.558 -2.554,-2.558 z m 0,4.361 c -1,0 -1.813,-0.811 -1.813,-1.811 0,-0.998 0.813,-1.813 1.813,-1.813 0.998,0 1.812,0.813 1.812,1.813 0,1 -0.814,1.811 -1.812,1.811 z"
   inkscape:connector-curvature="0"
   style="fill:#9a916c" />
			</g>
			<g
   id="_x30_.2.2.10">
				<path
   id="_x30_.2.2.10.0"
   d="m 78.352,44.321 c -1.406,0 -2.555,1.146 -2.555,2.558 0,1.406 1.146,2.555 2.555,2.555 1.41,0 2.553,-1.146 2.553,-2.555 -0.001,-1.414 -1.145,-2.558 -2.553,-2.558 z m 0,4.361 c -1,0 -1.813,-0.811 -1.813,-1.811 0,-0.998 0.813,-1.813 1.813,-1.813 0.998,0 1.813,0.813 1.813,1.813 0,1 -0.815,1.811 -1.813,1.811 z"
   inkscape:connector-curvature="0"
   style="fill:#9a916c" />
			</g>
			<g
   id="_x30_.2.2.11">
				<path
   id="_x30_.2.2.11.0"
   d="m 85.551,44.321 c -1.404,0 -2.553,1.146 -2.553,2.558 0,1.406 1.146,2.555 2.553,2.555 1.408,0 2.555,-1.146 2.555,-2.555 -0.002,-1.414 -1.147,-2.558 -2.555,-2.558 z m 0,4.361 c -1,0 -1.811,-0.811 -1.811,-1.811 0,-0.998 0.811,-1.813 1.811,-1.813 0.998,0 1.813,0.813 1.813,1.813 0,1 -0.815,1.811 -1.813,1.811 z"
   inkscape:connector-curvature="0"
   style="fill:#9a916c" />
			</g>
			<g
   id="_x30_.2.2.12">
				<path
   id="_x30_.2.2.12.0"
   d="m 92.752,44.321 c -1.406,0 -2.555,1.146 -2.555,2.558 0,1.406 1.146,2.555 2.555,2.555 1.409,0 2.553,-1.146 2.553,-2.555 0,-1.414 -1.145,-2.558 -2.553,-2.558 z m 0,4.361 c -1,0 -1.813,-0.811 -1.813,-1.811 0,-0.998 0.813,-1.813 1.813,-1.813 0.998,0 1.811,0.813 1.811,1.813 0,1 -0.813,1.811 -1.811,1.811 z"
   inkscape:connector-curvature="0"
   style="fill:#9a916c" />
			</g>
			<g
   id="_x30_.2.2.13">
				<path
   id="_x30_.2.2.13.0"
   d="m 99.951,44.321 c -1.404,0 -2.553,1.146 -2.553,2.558 0,1.406 1.146,2.555 2.553,2.555 1.408,0 2.555,-1.146 2.555,-2.555 -0.002,-1.414 -1.147,-2.558 -2.555,-2.558 z m 0,4.361 c -1,0 -1.811,-0.811 -1.811,-1.811 0,-0.998 0.811,-1.813 1.811,-1.813 0.998,0 1.813,0.813 1.813,1.813 0,1 -0.815,1.811 -1.813,1.811 z"
   inkscape:connector-curvature="0"
   style="fill:#9a916c" />
			</g>
		</g>
	</g>
	<g
   id="_x30_.3">
		<polygon
   id="_x30_.3.0"
   points="0.035,34.735 0.035,15.892 17.16,15.892 17.16,34.737 "
   style="fill:#b3b3b3" />
		<rect
   id="_x30_.3.1"
   x="7.5040002"
   y="34.936001"
   width="3.0409999"
   height="1.83"
   style="fill:#666666" />
		<rect
   id="_x30_.3.2"
   x="7.5040002"
   y="13.832"
   width="3.0409999"
   height="1.829"
   style="fill:#666666" />
		<rect
   id="_x30_.3.3"
   x="17.030001"
   y="15.892"
   width="0.13"
   height="18.844999"
   style="fill:#cccccc" />
		<rect
   id="_x30_.3.4"
   x="0.30700001"
   y="20.152"
   width="16.853001"
   height="10.292"
   style="fill:#333333" />
		<rect
   id="_x30_.3.5"
   y="14.658"
   width="0.57599998"
   height="1.003"
   x="0"
   style="fill:#b3b3b3" />
		<rect
   id="_x30_.3.6"
   y="15.021"
   width="0.57599998"
   height="0.64499998"
   x="0"
   style="fill:#cccccc" />
		<rect
   id="_x30_.3.7"
   y="34.933998"
   width="0.57599998"
   height="1.002"
   x="0"
   style="fill:#b3b3b3" />
		<rect
   id="_x30_.3.8"
   y="34.933998"
   width="0.57599998"
   height="0.64600003"
   x="0"
   style="fill:#cccccc" />
		<path
   id="_x30_.3.9"
   d="m 16.593,15.661 0.567,0.229 v 2.534 c 0,0 -0.113,-2.302 -0.283,-2.384 -0.17,-0.082 -0.284,0.107 -0.284,0.107 v -0.486 z"
   inkscape:connector-curvature="0"
   style="fill:#cccccc" />
		<path
   id="_x30_.3.10"
   d="m 16.593,34.936 0.566,-0.229 v -2.533 c 0,0 -0.113,2.301 -0.283,2.383 -0.17,0.082 -0.283,-0.106 -0.283,-0.106 v 0.485 z"
   inkscape:connector-curvature="0"
   style="fill:#cccccc" />
		<path
   id="_x30_.3.11"
   d="m 16.593,31.547 h -1.066 v -1.605 h 1.634 V 29.481 H 16.595 V 21.12 h 0.566 v -0.525 h -1.635 v -1.606 h 1.067 V 15.668 H 0.153 v 19.271 h 16.44 V 31.547 z M 3.303,20.592 H 2.489 V 18.999 H 3.37 c 0.277,-0.426 0.76,-0.708 1.307,-0.708 0.598,0 1.105,0.219 1.369,0.708 l 0,0 h 4.48 v 1.592 H 6.043 c -0.264,0.488 -0.773,0.825 -1.371,0.825 -0.596,0 -1.105,-0.336 -1.369,-0.824 z m 0,10.887 H 2.489 V 29.887 H 3.37 c 0.277,-0.426 0.76,-0.707 1.307,-0.707 0.598,0 1.105,0.217 1.369,0.707 l 0,0 h 4.48 v 1.592 H 6.043 c -0.264,0.49 -0.773,0.826 -1.371,0.826 -0.596,0 -1.105,-0.334 -1.369,-0.826 z"
   inkscape:connector-curvature="0"
   style="fill:#e6e6e6" />
		<polygon
   id="_x30_.3.12"
   points="0.151,16.066 0.151,15.661 16.593,15.661 16.593,17.191 "
   style="fill:#f2f2f2" />
		<polygon
   id="_x30_.3.13"
   points="0.151,34.936 11.129,34.368 16.593,33.799 16.593,34.936 "
   style="fill:#999999" />
		<rect
   id="_x30_.3.14"
   x="10.395"
   y="18.999001"
   width="0.131"
   height="1.592"
   style="fill:#cccccc" />
		<rect
   id="_x30_.3.15"
   x="10.395"
   y="29.889"
   width="0.131"
   height="1.592"
   style="fill:#cccccc" />
		<rect
   id="_x30_.3.16"
   x="0.354"
   y="16.605"
   width="0.66000003"
   height="17.389999"
   style="fill:#b3b3b3" />
		<rect
   id="_x30_.3.17"
   x="0.15099999"
   y="16.605"
   width="0.31299999"
   height="17.389999"
   style="fill:#cccccc" />
	</g>
	<rect
   id="_x30_.5"
   x="51.449001"
   y="11.149"
   width="28.347"
   height="28.35"
   style="fill:#333333" />
	<rect
   id="_x30_.6"
   x="90.196999"
   y="36.834"
   width="5.7789998"
   height="5.7740002"
   style="fill:#333333" />
	<rect
   id="_x30_.7"
   x="17.860001"
   y="9.3109999"
   width="5.7779999"
   height="5.7779999"
   style="fill:#333333" />
	<rect
   id="_x30_.8"
   x="17.860001"
   y="30.007"
   width="11.14"
   height="11.139"
   style="fill:#333333" />
	<rect
   id="_x30_.9"
   x="84.004997"
   y="37.167999"
   width="2.1010001"
   height="4.289"
   style="fill:#333333" />
	<rect
   id="_x30_.10"
   x="78.791"
   y="40.408001"
   width="4.289"
   height="2.1010001"
   style="fill:#333333" />
	<rect
   id="_x30_.11"
   x="88.887001"
   y="11.149"
   width="4.289"
   height="2.1040001"
   style="fill:#333333" />
	<rect
   id="_x30_.12"
   x="48.692001"
   y="7.4159999"
   width="2.1010001"
   height="3.73"
   style="fill:#333333" />
	<rect
   id="_x30_.13"
   x="45.945999"
   y="7.4159999"
   width="2.1010001"
   height="3.73"
   style="fill:#333333" />
	<rect
   id="_x30_.14"
   x="30.049999"
   y="38.542"
   width="2.1010001"
   height="3.7290001"
   style="fill:#333333" />
	<g
   id="_x30_.15">
		<g
   id="_x30_.15.0">
			<rect
   id="_x30_.15.0.0"
   x="27.948999"
   y="17.146"
   width="2.1010001"
   height="3.733"
   style="fill:#333333" />
		</g>
		<g
   id="_x30_.15.1">
			<rect
   id="_x30_.15.1.0"
   x="18.702"
   y="21.128"
   width="2.1010001"
   height="6.2210002"
   style="fill:#333333" />
		</g>
		<g
   id="_x30_.15.2">
			<rect
   id="_x30_.15.2.0"
   x="31.924999"
   y="17.146"
   width="2.1010001"
   height="3.733"
   style="fill:#333333" />
		</g>
		<g
   id="_x30_.15.3">
			<rect
   id="_x30_.15.3.0"
   x="35.901001"
   y="17.146"
   width="2.1010001"
   height="4.7030001"
   style="fill:#333333" />
		</g>
		<g
   id="_x30_.15.4">
			<rect
   id="_x30_.15.4.0"
   x="39.876999"
   y="17.146"
   width="2.1010001"
   height="3.733"
   style="fill:#333333" />
		</g>
		<g
   id="_x30_.15.5">
			<rect
   id="_x30_.15.5.0"
   x="43.853001"
   y="17.146"
   width="2.1010001"
   height="3.733"
   style="fill:#333333" />
		</g>
	</g>
	<rect
   id="_x30_.16"
   x="88.887001"
   y="8.368"
   width="5.704"
   height="2.1010001"
   style="fill:#333333" />
	<rect
   id="_x30_.17"
   x="82.203003"
   y="8.368"
   width="5.704"
   height="2.1010001"
   style="fill:#333333" />
	<rect
   id="_x30_.18"
   x="18.702"
   y="16.141001"
   width="4.0929999"
   height="2.1040001"
   style="fill:#333333" />
	<rect
   id="_x30_.19"
   x="34.379002"
   y="33.554001"
   width="11.586"
   height="6.0879998"
   style="fill:#333333" />
	<rect
   id="_x30_.20"
   x="22.139"
   y="21.198"
   width="4.0929999"
   height="2.1010001"
   style="fill:#333333" />
	<rect
   id="_x30_.21"
   x="22.139"
   y="24.339001"
   width="4.0929999"
   height="2.1010001"
   style="fill:#333333" />
	<rect
   id="_x30_.22"
   x="5.7420001"
   y="38.672001"
   width="4.0929999"
   height="2.102"
   style="fill:#333333" />
	<rect
   id="_x30_.23"
   x="41.853001"
   y="30.007"
   width="4.0929999"
   height="2.102"
   style="fill:#333333" />
	<g
   id="_x30_.24">
		<polygon
   id="_x30_.24.0"
   points="88.785,30.833 95.088,30.833 95.088,19.766 88.785,19.766 88.785,23.096 88.932,23.096 88.932,27.503 88.785,27.503 "
   style="fill:#cccccc" />
		<polygon
   id="_x30_.24.1"
   points="96.098,19.766 89.842,19.766 89.842,30.833 96.098,30.833 96.098,27.503 95.953,27.503 95.953,23.096 96.098,23.096 "
   style="fill:#cccccc" />
		<circle
   id="_x30_.24.2"
   cx="92.441002"
   cy="25.299999"
   r="2.316"
   sodipodi:cx="92.441002"
   sodipodi:cy="25.299999"
   sodipodi:rx="2.316"
   sodipodi:ry="2.316"
   d="m 94.757002,25.299999 c 0,1.279092 -1.036909,2.316 -2.316,2.316 -1.279092,0 -2.316,-1.036908 -2.316,-2.316 0,-1.279091 1.036908,-2.316 2.316,-2.316 1.279091,0 2.316,1.036909 2.316,2.316 z" />
		<path
   id="_x30_.24.3"
   enable-background="new    "
   d="m 92.553,27.617 c 1.281,0 2.318,-1.038 2.318,-2.316 0,-1.279 -1.037,-2.316 -2.318,-2.316 h -0.111 c 1.281,0 2.316,1.036 2.316,2.316 0,1.278 -1.035,2.316 -2.316,2.316 h 0.111 z"
   inkscape:connector-curvature="0"
   style="opacity:0.2" />
		<circle
   id="_x30_.24.4"
   cx="92.441002"
   cy="25.299999"
   r="2.2320001"
   sodipodi:cx="92.441002"
   sodipodi:cy="25.299999"
   sodipodi:rx="2.2320001"
   sodipodi:ry="2.2320001"
   style="fill:#1a1a1a"
   d="m 94.673002,25.299999 c 0,1.2327 -0.9993,2.232 -2.232,2.232 -1.2327,0 -2.232,-0.9993 -2.232,-2.232 0,-1.232699 0.9993,-2.232 2.232,-2.232 1.2327,0 2.232,0.999301 2.232,2.232 z" />
		<circle
   id="_x30_.24.5"
   cx="92.389"
   cy="25.299999"
   r="2.2320001"
   sodipodi:cx="92.389"
   sodipodi:cy="25.299999"
   sodipodi:rx="2.2320001"
   sodipodi:ry="2.2320001"
   style="fill:#333333"
   d="m 94.621,25.299999 c 0,1.2327 -0.9993,2.232 -2.232,2.232 -1.2327,0 -2.232,-0.9993 -2.232,-2.232 0,-1.232699 0.9993,-2.232 2.232,-2.232 1.2327,0 2.232,0.999301 2.232,2.232 z" />
		<path
   id="_x30_.24.6"
   enable-background="new    "
   d="m 92.494,27.532 c 1.232,0 2.232,-0.999 2.232,-2.231 0,-1.233 -1,-2.233 -2.232,-2.233 h -0.105 c 1.232,0 2.232,1.001 2.232,2.233 0,1.232 -1,2.231 -2.232,2.231 h 0.105 z"
   inkscape:connector-curvature="0"
   style="opacity:0.2" />
		<path
   id="_x30_.24.7"
   enable-background="new    "
   d="m 92.494,23.067 c -1.232,0 -2.232,1.001 -2.232,2.233 0,1.232 1,2.231 2.232,2.231 h -0.105 c -1.231,0 -2.23,-0.999 -2.23,-2.231 0,-1.233 0.999,-2.233 2.23,-2.233 h 0.105 z"
   inkscape:connector-curvature="0"
   style="opacity:0.2;fill:#ffffff" />
		
			<rect
   id="_x30_.24.8"
   x="88.785004"
   y="19.764999"
   enable-background="new    "
   width="0.146"
   height="3.3310001"
   style="opacity:0.2;fill:#ffffff" />
		
			<rect
   id="_x30_.24.9"
   x="88.785004"
   y="27.503"
   enable-background="new    "
   width="0.146"
   height="3.3299999"
   style="opacity:0.2;fill:#ffffff" />
		
			<rect
   id="_x30_.24.10"
   x="88.931999"
   y="23.096001"
   enable-background="new    "
   width="0.146"
   height="4.4070001"
   style="opacity:0.2;fill:#ffffff" />
		<rect
   id="_x30_.24.11"
   x="95.945"
   y="19.764999"
   enable-background="new    "
   width="0.146"
   height="3.3310001"
   style="opacity:0.2" />
		<rect
   id="_x30_.24.12"
   x="95.945"
   y="27.503"
   enable-background="new    "
   width="0.146"
   height="3.3299999"
   style="opacity:0.2" />
		<rect
   id="_x30_.24.13"
   x="95.799004"
   y="23.096001"
   enable-background="new    "
   width="0.146"
   height="4.4070001"
   style="opacity:0.2" />
	</g>
	<g
   id="_x30_.25_1_"
   transform="translate(53.1504,43.1858)">
		<g
   id="_x30_.25">
			<g
   id="_x30_.25.0">
				<text
   id="_x30_.25.0.0"
   font-size="3"
   style="font-size:3px;fill:#333333;font-family:OCRA">teensy3.1</text>

			</g>
		</g>
	</g>
	<g
   id="_x30_.26">
		<circle
   id="connector19pin"
   cx="99.941002"
   cy="3.723"
   r="1.908"
   sodipodi:cx="99.941002"
   sodipodi:cy="3.723"
   sodipodi:rx="1.908"
   sodipodi:ry="1.908"
   style="fill:none;stroke:#9a916c;stroke-width:1.22399998"
   d="m 101.849,3.723 c 0,1.0537593 -0.85424,1.908 -1.907998,1.908 -1.053759,0 -1.908,-0.8542407 -1.908,-1.908 0,-1.0537592 0.854241,-1.9079999 1.908,-1.9079999 1.053758,0 1.907998,0.8542407 1.907998,1.9079999 z" />
		<circle
   id="connector20pin"
   cx="92.741997"
   cy="3.723"
   r="1.908"
   sodipodi:cx="92.741997"
   sodipodi:cy="3.723"
   sodipodi:rx="1.908"
   sodipodi:ry="1.908"
   style="fill:none;stroke:#9a916c;stroke-width:1.22399998"
   d="m 94.649997,3.723 c 0,1.0537593 -0.854241,1.908 -1.908,1.908 -1.05376,0 -1.908,-0.8542407 -1.908,-1.908 0,-1.0537592 0.85424,-1.9079999 1.908,-1.9079999 1.053759,0 1.908,0.8542407 1.908,1.9079999 z" />
		<circle
   id="connector21pin"
   cx="85.542"
   cy="3.723"
   r="1.908"
   sodipodi:cx="85.542"
   sodipodi:cy="3.723"
   sodipodi:rx="1.908"
   sodipodi:ry="1.908"
   style="fill:none;stroke:#9a916c;stroke-width:1.22399998"
   d="m 87.45,3.723 c 0,1.0537593 -0.854241,1.908 -1.908,1.908 -1.053759,0 -1.908,-0.8542407 -1.908,-1.908 0,-1.0537592 0.854241,-1.9079999 1.908,-1.9079999 1.053759,0 1.908,0.8542407 1.908,1.9079999 z" />
		<circle
   id="connector22pin"
   cx="78.342003"
   cy="3.723"
   r="1.908"
   sodipodi:cx="78.342003"
   sodipodi:cy="3.723"
   sodipodi:rx="1.908"
   sodipodi:ry="1.908"
   style="fill:none;stroke:#9a916c;stroke-width:1.22399998"
   d="m 80.250003,3.723 c 0,1.0537593 -0.854241,1.908 -1.908,1.908 -1.053759,0 -1.908,-0.8542407 -1.908,-1.908 0,-1.0537592 0.854241,-1.9079999 1.908,-1.9079999 1.053759,0 1.908,0.8542407 1.908,1.9079999 z" />
		<circle
   id="connector23pin"
   cx="71.142998"
   cy="3.723"
   r="1.908"
   sodipodi:cx="71.142998"
   sodipodi:cy="3.723"
   sodipodi:rx="1.908"
   sodipodi:ry="1.908"
   style="fill:none;stroke:#9a916c;stroke-width:1.22399998"
   d="m 73.050998,3.723 c 0,1.0537593 -0.854241,1.908 -1.908,1.908 -1.05376,0 -1.908,-0.8542407 -1.908,-1.908 0,-1.0537592 0.85424,-1.9079999 1.908,-1.9079999 1.053759,0 1.908,0.8542407 1.908,1.9079999 z" />
		<circle
   id="connector24pin"
   cx="63.941002"
   cy="3.723"
   r="1.908"
   sodipodi:cx="63.941002"
   sodipodi:cy="3.723"
   sodipodi:rx="1.908"
   sodipodi:ry="1.908"
   style="fill:none;stroke:#9a916c;stroke-width:1.22399998"
   d="m 65.849002,3.723 c 0,1.0537593 -0.854241,1.908 -1.908,1.908 -1.053759,0 -1.908,-0.8542407 -1.908,-1.908 0,-1.0537592 0.854241,-1.9079999 1.908,-1.9079999 1.053759,0 1.908,0.8542407 1.908,1.9079999 z" />
		<circle
   id="connector25pin"
   cx="56.743"
   cy="3.723"
   r="1.908"
   sodipodi:cx="56.743"
   sodipodi:cy="3.723"
   sodipodi:rx="1.908"
   sodipodi:ry="1.908"
   style="fill:none;stroke:#9a916c;stroke-width:1.22399998"
   d="m 58.651,3.723 c 0,1.0537593 -0.854241,1.908 -1.908,1.908 -1.053759,0 -1.908,-0.8542407 -1.908,-1.908 0,-1.0537592 0.854241,-1.9079999 1.908,-1.9079999 1.053759,0 1.908,0.8542407 1.908,1.9079999 z" />
		<circle
   id="connector26pin"
   cx="49.542"
   cy="3.723"
   r="1.908"
   sodipodi:cx="49.542"
   sodipodi:cy="3.723"
   sodipodi:rx="1.908"
   sodipodi:ry="1.908"
   style="fill:none;stroke:#9a916c;stroke-width:1.22399998"
   d="m 51.45,3.723 c 0,1.0537593 -0.854241,1.908 -1.908,1.908 -1.053759,0 -1.908,-0.8542407 -1.908,-1.908 0,-1.0537592 0.854241,-1.9079999 1.908,-1.9079999 1.053759,0 1.908,0.8542407 1.908,1.9079999 z" />
		<circle
   id="connector27pin"
   cx="42.341999"
   cy="3.723"
   r="1.908"
   sodipodi:cx="42.341999"
   sodipodi:cy="3.723"
   sodipodi:rx="1.908"
   sodipodi:ry="1.908"
   style="fill:none;stroke:#9a916c;stroke-width:1.22399998"
   d="m 44.249999,3.723 c 0,1.0537593 -0.854241,1.908 -1.908,1.908 -1.053759,0 -1.908,-0.8542407 -1.908,-1.908 0,-1.0537592 0.854241,-1.9079999 1.908,-1.9079999 1.053759,0 1.908,0.8542407 1.908,1.9079999 z" />
		<circle
   id="connector28pin"
   cx="35.143002"
   cy="3.723"
   r="1.908"
   sodipodi:cx="35.143002"
   sodipodi:cy="3.723"
   sodipodi:rx="1.908"
   sodipodi:ry="1.908"
   style="fill:none;stroke:#9a916c;stroke-width:1.22399998"
   d="m 37.051002,3.723 c 0,1.0537593 -0.854241,1.908 -1.908,1.908 -1.05376,0 -1.908,-0.8542407 -1.908,-1.908 0,-1.0537592 0.85424,-1.9079999 1.908,-1.9079999 1.053759,0 1.908,0.8542407 1.908,1.9079999 z" />
		<circle
   id="connector29pin"
   cx="27.941999"
   cy="3.723"
   r="1.908"
   sodipodi:cx="27.941999"
   sodipodi:cy="3.723"
   sodipodi:rx="1.908"
   sodipodi:ry="1.908"
   style="fill:none;stroke:#9a916c;stroke-width:1.22399998"
   d="m 29.849999,3.723 c 0,1.0537593 -0.85424,1.908 -1.908,1.908 -1.053759,0 -1.908,-0.8542407 -1.908,-1.908 0,-1.0537592 0.854241,-1.9079999 1.908,-1.9079999 1.05376,0 1.908,0.8542407 1.908,1.9079999 z" />
		<circle
   id="connector30pin"
   cx="20.742001"
   cy="3.723"
   r="1.908"
   sodipodi:cx="20.742001"
   sodipodi:cy="3.723"
   sodipodi:rx="1.908"
   sodipodi:ry="1.908"
   style="fill:none;stroke:#9a916c;stroke-width:1.22399998"
   d="m 22.650001,3.723 c 0,1.0537593 -0.854241,1.908 -1.908,1.908 -1.05376,0 -1.908,-0.8542407 -1.908,-1.908 0,-1.0537592 0.85424,-1.9079999 1.908,-1.9079999 1.053759,0 1.908,0.8542407 1.908,1.9079999 z" />
		<circle
   id="connector31pin"
   cx="13.542"
   cy="3.723"
   r="1.908"
   sodipodi:cx="13.542"
   sodipodi:cy="3.723"
   sodipodi:rx="1.908"
   sodipodi:ry="1.908"
   style="fill:none;stroke:#9a916c;stroke-width:1.22399998"
   d="m 15.45,3.723 c 0,1.0537593 -0.854241,1.908 -1.908,1.908 -1.053759,0 -1.908,-0.8542407 -1.908,-1.908 0,-1.0537592 0.854241,-1.9079999 1.908,-1.9079999 1.053759,0 1.908,0.8542407 1.908,1.9079999 z" />
		<circle
   id="connector32pin"
   cx="6.342"
   cy="3.723"
   r="1.908"
   sodipodi:cx="6.342"
   sodipodi:cy="3.723"
   sodipodi:rx="1.908"
   sodipodi:ry="1.908"
   style="fill:none;stroke:#9a916c;stroke-width:1.22399998"
   d="m 8.25,3.723 c 0,1.0537593 -0.8542407,1.908 -1.908,1.908 -1.0537593,0 -1.908,-0.8542407 -1.908,-1.908 0,-1.0537592 0.8542407,-1.9079999 1.908,-1.9079999 1.0537593,0 1.908,0.8542407 1.908,1.9079999 z" />
		<circle
   id="connector36pin"
   cx="13.542"
   cy="11.949"
   r="1.908"
   sodipodi:cx="13.542"
   sodipodi:cy="11.949"
   sodipodi:rx="1.908"
   sodipodi:ry="1.908"
   style="fill:none;stroke:#9a916c;stroke-width:1.22399998"
   d="m 15.45,11.949 c 0,1.05376 -0.854241,1.908 -1.908,1.908 -1.053759,0 -1.908,-0.85424 -1.908,-1.908 0,-1.053759 0.854241,-1.908 1.908,-1.908 1.053759,0 1.908,0.854241 1.908,1.908 z" />
		<circle
   id="connector34pin"
   cx="35.148998"
   cy="11.949"
   r="1.908"
   sodipodi:cx="35.148998"
   sodipodi:cy="11.949"
   sodipodi:rx="1.908"
   sodipodi:ry="1.908"
   style="fill:none;stroke:#9a916c;stroke-width:1.22399998"
   d="m 37.056998,11.949 c 0,1.05376 -0.85424,1.908 -1.908,1.908 -1.053759,0 -1.908,-0.85424 -1.908,-1.908 0,-1.053759 0.854241,-1.908 1.908,-1.908 1.05376,0 1.908,0.854241 1.908,1.908 z" />
		<circle
   id="connector35pin"
   cx="27.941999"
   cy="11.949"
   r="1.908"
   sodipodi:cx="27.941999"
   sodipodi:cy="11.949"
   sodipodi:rx="1.908"
   sodipodi:ry="1.908"
   style="fill:none;stroke:#9a916c;stroke-width:1.22399998"
   d="m 29.849999,11.949 c 0,1.05376 -0.85424,1.908 -1.908,1.908 -1.053759,0 -1.908,-0.85424 -1.908,-1.908 0,-1.053759 0.854241,-1.908 1.908,-1.908 1.05376,0 1.908,0.854241 1.908,1.908 z" />
		<circle
   id="connector13pin"
   cx="99.941002"
   cy="46.922001"
   r="1.908"
   sodipodi:cx="99.941002"
   sodipodi:cy="46.922001"
   sodipodi:rx="1.908"
   sodipodi:ry="1.908"
   style="fill:none;stroke:#9a916c;stroke-width:1.22399998"
   d="m 101.849,46.922001 c 0,1.053759 -0.85424,1.908 -1.907998,1.908 -1.053759,0 -1.908,-0.854241 -1.908,-1.908 0,-1.053759 0.854241,-1.908 1.908,-1.908 1.053758,0 1.907998,0.854241 1.907998,1.908 z" />
		<circle
   id="connector12pin"
   cx="92.741997"
   cy="46.922001"
   r="1.908"
   sodipodi:cx="92.741997"
   sodipodi:cy="46.922001"
   sodipodi:rx="1.908"
   sodipodi:ry="1.908"
   style="fill:none;stroke:#9a916c;stroke-width:1.22399998"
   d="m 94.649997,46.922001 c 0,1.053759 -0.854241,1.908 -1.908,1.908 -1.05376,0 -1.908,-0.854241 -1.908,-1.908 0,-1.053759 0.85424,-1.908 1.908,-1.908 1.053759,0 1.908,0.854241 1.908,1.908 z" />
		<circle
   id="connector11pin"
   cx="85.542"
   cy="46.922001"
   r="1.908"
   sodipodi:cx="85.542"
   sodipodi:cy="46.922001"
   sodipodi:rx="1.908"
   sodipodi:ry="1.908"
   style="fill:none;stroke:#9a916c;stroke-width:1.22399998"
   d="m 87.45,46.922001 c 0,1.053759 -0.854241,1.908 -1.908,1.908 -1.053759,0 -1.908,-0.854241 -1.908,-1.908 0,-1.053759 0.854241,-1.908 1.908,-1.908 1.053759,0 1.908,0.854241 1.908,1.908 z" />
		<circle
   id="connector10pin"
   cx="78.342003"
   cy="46.922001"
   r="1.908"
   sodipodi:cx="78.342003"
   sodipodi:cy="46.922001"
   sodipodi:rx="1.908"
   sodipodi:ry="1.908"
   style="fill:none;stroke:#9a916c;stroke-width:1.22399998"
   d="m 80.250003,46.922001 c 0,1.053759 -0.854241,1.908 -1.908,1.908 -1.053759,0 -1.908,-0.854241 -1.908,-1.908 0,-1.053759 0.854241,-1.908 1.908,-1.908 1.053759,0 1.908,0.854241 1.908,1.908 z" />
		<circle
   id="connector9pin"
   cx="71.142998"
   cy="46.922001"
   r="1.908"
   sodipodi:cx="71.142998"
   sodipodi:cy="46.922001"
   sodipodi:rx="1.908"
   sodipodi:ry="1.908"
   style="fill:none;stroke:#9a916c;stroke-width:1.22399998"
   d="m 73.050998,46.922001 c 0,1.053759 -0.854241,1.908 -1.908,1.908 -1.05376,0 -1.908,-0.854241 -1.908,-1.908 0,-1.053759 0.85424,-1.908 1.908,-1.908 1.053759,0 1.908,0.854241 1.908,1.908 z" />
		<circle
   id="connector8pin"
   cx="63.941002"
   cy="46.922001"
   r="1.908"
   sodipodi:cx="63.941002"
   sodipodi:cy="46.922001"
   sodipodi:rx="1.908"
   sodipodi:ry="1.908"
   style="fill:none;stroke:#9a916c;stroke-width:1.22399998"
   d="m 65.849002,46.922001 c 0,1.053759 -0.854241,1.908 -1.908,1.908 -1.053759,0 -1.908,-0.854241 -1.908,-1.908 0,-1.053759 0.854241,-1.908 1.908,-1.908 1.053759,0 1.908,0.854241 1.908,1.908 z" />
		<circle
   id="connector7pin"
   cx="56.743"
   cy="46.922001"
   r="1.908"
   sodipodi:cx="56.743"
   sodipodi:cy="46.922001"
   sodipodi:rx="1.908"
   sodipodi:ry="1.908"
   style="fill:none;stroke:#9a916c;stroke-width:1.22399998"
   d="m 58.651,46.922001 c 0,1.053759 -0.854241,1.908 -1.908,1.908 -1.053759,0 -1.908,-0.854241 -1.908,-1.908 0,-1.053759 0.854241,-1.908 1.908,-1.908 1.053759,0 1.908,0.854241 1.908,1.908 z" />
		<circle
   id="connector6pin"
   cx="49.542"
   cy="46.922001"
   r="1.908"
   sodipodi:cx="49.542"
   sodipodi:cy="46.922001"
   sodipodi:rx="1.908"
   sodipodi:ry="1.908"
   style="fill:none;stroke:#9a916c;stroke-width:1.22399998"
   d="m 51.45,46.922001 c 0,1.053759 -0.854241,1.908 -1.908,1.908 -1.053759,0 -1.908,-0.854241 -1.908,-1.908 0,-1.053759 0.854241,-1.908 1.908,-1.908 1.053759,0 1.908,0.854241 1.908,1.908 z" />
		<circle
   id="connector5pin"
   cx="42.341999"
   cy="46.922001"
   r="1.908"
   sodipodi:cx="42.341999"
   sodipodi:cy="46.922001"
   sodipodi:rx="1.908"
   sodipodi:ry="1.908"
   style="fill:none;stroke:#9a916c;stroke-width:1.22399998"
   d="m 44.249999,46.922001 c 0,1.053759 -0.854241,1.908 -1.908,1.908 -1.053759,0 -1.908,-0.854241 -1.908,-1.908 0,-1.053759 0.854241,-1.908 1.908,-1.908 1.053759,0 1.908,0.854241 1.908,1.908 z" />
		<circle
   id="connector4pin"
   cx="35.143002"
   cy="46.922001"
   r="1.908"
   sodipodi:cx="35.143002"
   sodipodi:cy="46.922001"
   sodipodi:rx="1.908"
   sodipodi:ry="1.908"
   style="fill:none;stroke:#9a916c;stroke-width:1.22399998"
   d="m 37.051002,46.922001 c 0,1.053759 -0.854241,1.908 -1.908,1.908 -1.05376,0 -1.908,-0.854241 -1.908,-1.908 0,-1.053759 0.85424,-1.908 1.908,-1.908 1.053759,0 1.908,0.854241 1.908,1.908 z" />
		<circle
   id="connector3pin"
   cx="27.941999"
   cy="46.922001"
   r="1.908"
   sodipodi:cx="27.941999"
   sodipodi:cy="46.922001"
   sodipodi:rx="1.908"
   sodipodi:ry="1.908"
   style="fill:none;stroke:#9a916c;stroke-width:1.22399998"
   d="m 29.849999,46.922001 c 0,1.053759 -0.85424,1.908 -1.908,1.908 -1.053759,0 -1.908,-0.854241 -1.908,-1.908 0,-1.053759 0.854241,-1.908 1.908,-1.908 1.05376,0 1.908,0.854241 1.908,1.908 z" />
		<circle
   id="connector2pin"
   cx="20.742001"
   cy="46.922001"
   r="1.908"
   sodipodi:cx="20.742001"
   sodipodi:cy="46.922001"
   sodipodi:rx="1.908"
   sodipodi:ry="1.908"
   style="fill:none;stroke:#9a916c;stroke-width:1.22399998"
   d="m 22.650001,46.922001 c 0,1.053759 -0.854241,1.908 -1.908,1.908 -1.05376,0 -1.908,-0.854241 -1.908,-1.908 0,-1.053759 0.85424,-1.908 1.908,-1.908 1.053759,0 1.908,0.854241 1.908,1.908 z" />
		<circle
   id="connector1pin"
   cx="13.542"
   cy="46.922001"
   r="1.908"
   sodipodi:cx="13.542"
   sodipodi:cy="46.922001"
   sodipodi:rx="1.908"
   sodipodi:ry="1.908"
   style="fill:none;stroke:#9a916c;stroke-width:1.22399998"
   d="m 15.45,46.922001 c 0,1.053759 -0.854241,1.908 -1.908,1.908 -1.053759,0 -1.908,-0.854241 -1.908,-1.908 0,-1.053759 0.854241,-1.908 1.908,-1.908 1.053759,0 1.908,0.854241 1.908,1.908 z" />
		<circle
   id="connector0pin"
   cx="6.342"
   cy="46.922001"
   r="1.908"
   sodipodi:cx="6.342"
   sodipodi:cy="46.922001"
   sodipodi:rx="1.908"
   sodipodi:ry="1.908"
   style="fill:none;stroke:#9a916c;stroke-width:1.22399998"
   d="m 8.25,46.922001 c 0,1.053759 -0.8542407,1.908 -1.908,1.908 -1.0537593,0 -1.908,-0.854241 -1.908,-1.908 0,-1.053759 0.8542407,-1.908 1.908,-1.908 1.0537593,0 1.908,0.854241 1.908,1.908 z" />
		<circle
   id="connector33pin"
   cx="42.348999"
   cy="11.95"
   r="1.908"
   sodipodi:cx="42.348999"
   sodipodi:cy="11.95"
   sodipodi:rx="1.908"
   sodipodi:ry="1.908"
   style="fill:none;stroke:#9a916c;stroke-width:1.22399998"
   d="m 44.256999,11.95 c 0,1.053759 -0.854241,1.908 -1.908,1.908 -1.053759,0 -1.908,-0.854241 -1.908,-1.908 0,-1.053759 0.854241,-1.908 1.908,-1.908 1.053759,0 1.908,0.854241 1.908,1.908 z" />
		<circle
   id="connector15pin"
   cx="99.943001"
   cy="32.522999"
   r="1.908"
   sodipodi:cx="99.943001"
   sodipodi:cy="32.522999"
   sodipodi:rx="1.908"
   sodipodi:ry="1.908"
   style="fill:none;stroke:#9a916c;stroke-width:1.22399998"
   d="m 101.851,32.522999 c 0,1.053759 -0.85424,1.908 -1.907999,1.908 -1.05376,0 -1.908,-0.854241 -1.908,-1.908 0,-1.053759 0.85424,-1.908 1.908,-1.908 1.053759,0 1.907999,0.854241 1.907999,1.908 z" />
		<circle
   id="connector14pin"
   cx="99.941002"
   cy="39.723"
   r="1.908"
   sodipodi:cx="99.941002"
   sodipodi:cy="39.723"
   sodipodi:rx="1.908"
   sodipodi:ry="1.908"
   style="fill:none;stroke:#9a916c;stroke-width:1.22399998"
   d="m 101.849,39.723 c 0,1.053759 -0.85424,1.908 -1.907998,1.908 -1.053759,0 -1.908,-0.854241 -1.908,-1.908 0,-1.05376 0.854241,-1.908 1.908,-1.908 1.053758,0 1.907998,0.85424 1.907998,1.908 z" />
		<circle
   id="connector16pin"
   cx="99.943001"
   cy="25.323"
   r="1.908"
   sodipodi:cx="99.943001"
   sodipodi:cy="25.323"
   sodipodi:rx="1.908"
   sodipodi:ry="1.908"
   style="fill:none;stroke:#9a916c;stroke-width:1.22399998"
   d="m 101.851,25.323 c 0,1.053759 -0.85424,1.908 -1.907999,1.908 -1.05376,0 -1.908,-0.854241 -1.908,-1.908 0,-1.053759 0.85424,-1.908 1.908,-1.908 1.053759,0 1.907999,0.854241 1.907999,1.908 z" />
		<circle
   id="connector18pin"
   cx="99.941002"
   cy="10.923"
   r="1.908"
   sodipodi:cx="99.941002"
   sodipodi:cy="10.923"
   sodipodi:rx="1.908"
   sodipodi:ry="1.908"
   style="fill:none;stroke:#9a916c;stroke-width:1.22399998"
   d="m 101.849,10.923 c 0,1.05376 -0.85424,1.908 -1.907998,1.908 -1.053759,0 -1.908,-0.85424 -1.908,-1.908 0,-1.053759 0.854241,-1.9079997 1.908,-1.9079997 1.053758,0 1.907998,0.8542407 1.907998,1.9079997 z" />
		<circle
   id="connector17pin"
   cx="99.943001"
   cy="18.122"
   r="1.908"
   sodipodi:cx="99.943001"
   sodipodi:cy="18.122"
   sodipodi:rx="1.908"
   sodipodi:ry="1.908"
   style="fill:none;stroke:#9a916c;stroke-width:1.22399998"
   d="m 101.851,18.122 c 0,1.053759 -0.85424,1.908 -1.907999,1.908 -1.05376,0 -1.908,-0.854241 -1.908,-1.908 0,-1.05376 0.85424,-1.908 1.908,-1.908 1.053759,0 1.907999,0.85424 1.907999,1.908 z" />
		<circle
   id="_x30_.26.37"
   cx="40.054001"
   cy="22.724001"
   r="1.4170001"
   sodipodi:cx="40.054001"
   sodipodi:cy="22.724001"
   sodipodi:rx="1.4170001"
   sodipodi:ry="1.4170001"
   style="fill:none;stroke:#9a916c;stroke-width:0.5"
   d="m 41.471001,22.724001 c 0,0.782587 -0.634413,1.417 -1.417,1.417 -0.782588,0 -1.417,-0.634413 -1.417,-1.417 0,-0.782588 0.634412,-1.417 1.417,-1.417 0.782587,0 1.417,0.634412 1.417,1.417 z" />
		<circle
   id="connector16pin_1_"
   cx="43.901001"
   cy="22.724001"
   r="1.4170001"
   sodipodi:cx="43.901001"
   sodipodi:cy="22.724001"
   sodipodi:rx="1.4170001"
   sodipodi:ry="1.4170001"
   style="fill:none;stroke:#9a916c;stroke-width:0.5"
   d="m 45.318001,22.724001 c 0,0.782587 -0.634413,1.417 -1.417,1.417 -0.782588,0 -1.417,-0.634413 -1.417,-1.417 0,-0.782588 0.634412,-1.417 1.417,-1.417 0.782587,0 1.417,0.634412 1.417,1.417 z" />
	</g>
</g>
</svg>